<svg width="67" height="80" viewBox="0 0 67 80" fill="none" xmlns="http://www.w3.org/2000/svg">
<g clip-path="url(#clip0_6097_32690)">
<path d="M42 3.00011H35V36.2485H42V3.00011Z" fill="black"/>
<path d="M66.5 3.00011H59.5V36.2485H66.5V3.00011Z" fill="black"/>
<path d="M31.5 3.00011H0V10.0001H31.5V3.00011Z" fill="black"/>
<path d="M31.5 29.7753V38.0002L0 18.225V10.0002L31.5 29.7753Z" fill="black"/>
<path d="M66.5 73.0001H35V80.0001H66.5V73.0001Z" fill="black"/>
<path d="M66.5 38.0002H35V45.0002H66.5V38.0002Z" fill="black"/>
<path d="M66.5 64.7753V73.0001L35 53.2249V45.0001L66.5 64.7753Z" fill="black"/>
<path d="M31.5 38.0002H0V45.0002H31.5V38.0002Z" fill="black"/>
<path d="M0 45.0001V52.3491L31.5 61.6243V54.2753L0 45.0001Z" fill="black"/>
<path d="M0 52.3491V60.2249L31.5 80.0001V72.1242L0 52.3491Z" fill="black"/>
</g>
<defs>
<clipPath id="clip0_6097_32690">
<rect width="66.5" height="80.0001" fill="white"/>
</clipPath>
</defs>
</svg>
